PathFileType	4	(X/Y/Z)	./resultDataOpenSim/trcMotMarkerGrf/sub09/qtm-12-02.trc
DataRate	CameraRate	NumFrames	NumMarkers	Units	OrigDataRate	OrigDataStartFrame	OrigNumFrames
250.000000	250.000000	7	24	m	250.000000	302	482
Frame#	Time	L.Toe.Tip			R.Toe.Tip			L.Ankle.Lat			R.Ankle.Lat			L.Ankle.Med			R.Ankle.Med			L.Heel			R.Heel			L.Knee.Lat			R.Knee.Lat			L.Knee.Med			R.Knee.Med			L.Thigh.Upper			R.Thigh.Upper			L.ASIS			R.ASIS			V.Sacral			L.Acromium			R.Acromium			C7			L.Elbow			R.Elbow			L.Wrist.Lat			R.Wrist.Lat
		X1	Y1	Z1	X2	Y2	Z2	X3	Y3	Z3	X4	Y4	Z4	X5	Y5	Z5	X6	Y6	Z6	X7	Y7	Z7	X8	Y8	Z8	X9	Y9	Z9	X10	Y10	Z10	X11	Y11	Z11	X12	Y12	Z12	X13	Y13	Z13	X14	Y14	Z14	X15	Y15	Z15	X16	Y16	Z16	X17	Y17	Z17	X18	Y18	Z18	X19	Y19	Z19	X20	Y20	Z20	X21	Y21	Z21	X22	Y22	Z22	X23	Y23	Z23	X24	Y24	Z24

302	1.204	0.17079383	0.022447854	-0.016272615	1.0618566	0.040934805	0.051075951	0.10312528	0.15579517	-0.080142842	0.91312697	0.054036705	0.096551385	0.14049975	0.15775607	0.010867937	0.91649441	0.095365632	0.0048801452	0.037142431	0.18578564	-0.030535907	0.84402633	0.031048845	0.052314392	0.42621102	0.43066295	-0.13324343	0.86775337	0.51048125	0.14348432	0.43736441	0.41874109	-0.0087031041	0.85137178	0.49079231	0.020780778	0.5632791	0.81394703	-0.15653773	0.64425175	0.8395001	0.20985379	0.67551378	0.88953985	-0.11764588	0.70650152	0.92090856	0.12022847	0.52639176	0.96015561	0.019792292	0.68104036	1.3593247	-0.15332103	0.65680897	1.369194	0.1785229	0.60267292	1.4132178	0.011136455	0.54479171	1.0112846	-0.22780108	0.49371065	1.049794	0.25102526	0.74207712	0.8264637	-0.22780297	0.58282996	0.79558341	0.30114858
303	1.208	0.17295147	0.024039811	-0.016890612	1.0621406	0.040687951	0.05081835	0.10969379	0.15996175	-0.081323475	0.91336027	0.054087138	0.096504059	0.14734871	0.16109277	0.0094980985	0.91680355	0.095446597	0.0047690721	0.044981628	0.19192207	-0.031697325	0.84415908	0.031105807	0.05244667	0.43742582	0.42906093	-0.13472338	0.87617844	0.51088666	0.14333352	0.44921981	0.41573089	-0.010116128	0.8587087	0.49214979	0.020067911	0.57123109	0.8129646	-0.1560275	0.6507786	0.84035931	0.21046629	0.68259492	0.88933182	-0.11673274	0.71313729	0.92187864	0.12092158	0.53270851	0.96025019	0.019805135	0.68841614	1.3593541	-0.15338445	0.66390016	1.3693523	0.17844914	0.60984628	1.4133342	0.011016917	0.55130094	1.0117408	-0.22745346	0.50154486	1.0494375	0.25108748	0.7472755	0.82552965	-0.22782449	0.59190123	0.79557586	0.30110976
304	1.212	0.17538451	0.025822408	-0.017486325	1.0623945	0.040491948	0.050644315	0.11670746	0.16420227	-0.082401554	0.9137706	0.054085359	0.096328269	0.15449397	0.16454945	0.0082812892	0.91725663	0.095509829	0.004567903	0.053229329	0.19816081	-0.032930895	0.84430349	0.031166533	0.052439088	0.44883447	0.42740935	-0.13613077	0.88517512	0.5114704	0.14337821	0.46118587	0.41281361	-0.011399447	0.86582241	0.49326857	0.019377455	0.57904984	0.81209763	-0.1555182	0.65722821	0.8411544	0.21099342	0.68955376	0.88924407	-0.11583572	0.71975843	0.92278575	0.12161827	0.5391122	0.96040486	0.019972434	0.69580587	1.359427	-0.15343758	0.67098011	1.369567	0.17834928	0.61697945	1.4135509	0.010853845	0.55777699	1.0122519	-0.22712542	0.50932985	1.0491365	0.25114325	0.7524235	0.82460748	-0.22783396	0.60115793	0.79568916	0.30115807
305	1.216	0.17812083	0.027793066	-0.018069348	1.0626302	0.040319913	0.050440319	0.12417352	0.16847668	-0.083414642	0.91429077	0.054048447	0.09604596	0.16196053	0.16810922	0.0072039972	0.91780591	0.095503303	0.0042923135	0.061906623	0.20447352	-0.034236204	0.8444456	0.03121732	0.052347626	0.46042855	0.42566749	-0.13743562	0.89425427	0.51179686	0.14325168	0.47300906	0.41017565	-0.012603285	0.87259889	0.49408995	0.018709431	0.58674236	0.81137323	-0.1550147	0.66361443	0.84190055	0.21144345	0.69638691	0.88927063	-0.11497163	0.72635271	0.92361845	0.12229768	0.54563423	0.96061763	0.020257347	0.70319721	1.3595382	-0.15349518	0.67804107	1.3698393	0.17822174	0.62405941	1.4138601	0.010654995	0.56420383	1.0128176	-0.22682053	0.5170657	1.0489008	0.25119922	0.75751353	0.82369935	-0.22783277	0.61069076	0.79596524	0.30134421
306	1.22	0.18117238	0.029945849	-0.018669206	1.0628293	0.040165987	0.050176384	0.13209521	0.17276678	-0.084379053	0.91484531	0.053946681	0.095693733	0.16975943	0.1717533	0.0062525517	0.91832393	0.095421839	0.0039926547	0.071014263	0.21083222	-0.035565042	0.84455034	0.031242811	0.052238642	0.47220772	0.42383527	-0.13862464	0.90281629	0.51154764	0.14260643	0.48478954	0.40782334	-0.013776521	0.87895452	0.49461988	0.01806799	0.59429697	0.8107905	-0.1545158	0.66997909	0.84262239	0.21185099	0.70308709	0.88941808	-0.11416143	0.73289912	0.92438773	0.12293856	0.55213951	0.96091628	0.020656671	0.71056173	1.3596915	-0.15356362	0.6850703	1.3701823	0.17806953	0.63107878	1.4142383	0.010423977	0.57059458	1.0134401	-0.22655475	0.52475002	1.0487407	0.25125674	0.76253785	0.82281891	-0.22782646	0.62041404	0.79639764	0.30162122
307	1.224	0.1845396	0.032262763	-0.01930585	1.0629625	0.040039077	0.049922769	0.14048955	0.17707973	-0.085305558	0.91537365	0.053757888	0.095316692	0.17790459	0.17544773	0.0054156794	0.91870841	0.095296801	0.0037128856	0.080549723	0.21719973	-0.036840772	0.84459218	0.031241212	0.052147659	0.48418978	0.42196347	-0.1397205	0.9102213	0.51095613	0.14162901	0.49685857	0.40563381	-0.01489842	0.88485472	0.49490281	0.017475341	0.60170052	0.81033272	-0.15401116	0.6763817	0.84333926	0.21225345	0.70965276	0.88969022	-0.11342716	0.73937173	0.92510779	0.12352426	0.5585381	0.96132236	0.021129678	0.7178741	1.359893	-0.15364087	0.69205496	1.3706079	0.17789287	0.63802864	1.4146592	0.010165249	0.57698483	1.0141215	-0.22634962	0.53238405	1.0486592	0.25131785	0.7674999	0.82197708	-0.22781999	0.63008669	0.79692217	0.30185395
308	1.228	0.18820666	0.034713218	-0.019978156	1.06302	0.039945506	0.049736566	0.14937387	0.18142821	-0.086214861	0.91581748	0.053517261	0.094974345	0.18641708	0.17914111	0.0046772525	0.91893743	0.095166392	0.0034782315	0.090534842	0.22353012	-0.038021923	0.84457294	0.031226076	0.052082259	0.49640802	0.42012632	-0.14075642	0.91630377	0.51041563	0.14077675	0.5094691	0.40352908	-0.015917475	0.89031638	0.49500242	0.016966175	0.60894414	0.80998895	-0.15350736	0.6828651	0.84405499	0.21266728	0.71608973	0.89007958	-0.11278823	0.74574788	0.925787	0.1240454	0.56488038	0.96182881	0.021585523	0.72511768	1.3601443	-0.15372375	0.69898787	1.3711175	0.17769242	0.64490254	1.4151233	0.0098914054	0.58339425	1.0148568	-0.22621674	0.53997319	1.0486577	0.25138809	0.77240657	0.82117214	-0.22781192	0.63953064	0.79747911	0.30194029
